HIERARCHY
ROOT Hips
{
	OFFSET 0.00000 0.00000 0.00000
	CHANNELS 6 Xposition Yposition Zposition Zrotation Yrotation Xrotation 
	JOINT LHipJoint
	{
		OFFSET 0 0 0
		CHANNELS 3 Zrotation Yrotation Xrotation
		JOINT LeftUpLeg
		{
			OFFSET 1.44361 -1.63093 0.70831
			CHANNELS 3 Zrotation Yrotation Xrotation
			JOINT LeftLeg
			{
				OFFSET 2.20103 -6.04728 0.00000
				CHANNELS 3 Zrotation Yrotation Xrotation
				JOINT LeftFoot
				{
					OFFSET 2.54154 -6.98283 0.00000
					CHANNELS 3 Zrotation Yrotation Xrotation
					JOINT LeftToeBase
					{
						OFFSET 0.05971 -0.16406 1.77582
						CHANNELS 3 Zrotation Yrotation Xrotation
						End Site
						{
							OFFSET 0.00000 -0.00000 0.90832
						}
					}
				}
			}
		}
	}
	JOINT RHipJoint
	{
		OFFSET 0 0 0
		CHANNELS 3 Zrotation Yrotation Xrotation
		JOINT RightUpLeg
		{
			OFFSET -1.65838 -1.63093 0.70830
			CHANNELS 3 Zrotation Yrotation Xrotation
			JOINT RightLeg
			{
				OFFSET -2.26926 -6.23475 0.00000
				CHANNELS 3 Zrotation Yrotation Xrotation
				JOINT RightFoot
				{
					OFFSET -2.34808 -6.45129 0.00000
					CHANNELS 3 Zrotation Yrotation Xrotation
					JOINT RightToeBase
					{
						OFFSET -0.18633 -0.51195 1.68539
						CHANNELS 3 Zrotation Yrotation Xrotation
						End Site
						{
							OFFSET -0.00000 -0.00000 0.88927
						}
					}
				}
			}
		}
	}
	JOINT LowerBack
	{
		OFFSET 0 0 0
		CHANNELS 3 Zrotation Yrotation Xrotation
		JOINT Spine
		{
			OFFSET -0.10393 2.01691 0.06920
			CHANNELS 3 Zrotation Yrotation Xrotation
			JOINT Spine1
			{
				OFFSET 0.04092 2.01302 -0.05283
				CHANNELS 3 Zrotation Yrotation Xrotation
				JOINT Neck
				{
					OFFSET 0 0 0
					CHANNELS 3 Zrotation Yrotation Xrotation
					JOINT Neck1
					{
						OFFSET -0.02870 1.58978 -0.03113
						CHANNELS 3 Zrotation Yrotation Xrotation
						JOINT Head
						{
							OFFSET 0.11532 1.54326 -0.29195
							CHANNELS 3 Zrotation Yrotation Xrotation
							End Site
							{
								OFFSET 0.04056 1.59999 -0.09535
							}
						}
					}
				}
				JOINT LeftShoulder
				{
					OFFSET 0 0 0
					CHANNELS 3 Zrotation Yrotation Xrotation
					JOINT LeftArm
					{
						OFFSET 3.30641 1.15764 0.01104
						CHANNELS 3 Zrotation Yrotation Xrotation
						JOINT LeftForeArm
						{
							OFFSET 4.63208 -0.00000 0.00000
							CHANNELS 3 Zrotation Yrotation Xrotation
							JOINT LeftHand
							{
								OFFSET 3.41924 -0.00000 -0.00000
								CHANNELS 3 Zrotation Yrotation Xrotation
								JOINT LeftFingerBase
								{
									OFFSET 0 0 0
									CHANNELS 3 Zrotation Yrotation Xrotation
									JOINT LeftHandIndex1
									{
										OFFSET 0.62537 -0.00000 -0.00000
										CHANNELS 3 Zrotation Yrotation Xrotation
										End Site
										{
											OFFSET 0.50419 -0.00000 -0.00000
										}
									}
								}
								JOINT LThumb
								{
									OFFSET 0 0 0
									CHANNELS 3 Zrotation Yrotation Xrotation
									End Site
									{
										OFFSET 0.51189 -0.00000 0.51189
									}
								}
							}
						}
					}
				}
				JOINT RightShoulder
				{
					OFFSET 0 0 0
					CHANNELS 3 Zrotation Yrotation Xrotation
					JOINT RightArm
					{
						OFFSET -3.78081 1.02180 -0.16609
						CHANNELS 3 Zrotation Yrotation Xrotation
						JOINT RightForeArm
						{
							OFFSET -4.40640 -0.00000 -0.00000
							CHANNELS 3 Zrotation Yrotation Xrotation
							JOINT RightHand
							{
								OFFSET -3.44675 -0.00000 0.00000
								CHANNELS 3 Zrotation Yrotation Xrotation
								JOINT RightFingerBase
								{
									OFFSET 0 0 0
									CHANNELS 3 Zrotation Yrotation Xrotation
									JOINT RightHandIndex1
									{
										OFFSET -0.51367 -0.00000 -0.00000
										CHANNELS 3 Zrotation Yrotation Xrotation
										End Site
										{
											OFFSET -0.41414 -0.00000 -0.00000
										}
									}
								}
								JOINT RThumb
								{
									OFFSET 0 0 0
									CHANNELS 3 Zrotation Yrotation Xrotation
									End Site
									{
										OFFSET -0.42046 -0.00000 0.42046
									}
								}
							}
						}
					}
				}
			}
		}
	}
}
MOTION
Frames: 13
Frame Time: .0083333
11.483 16.4512 3.9532 0 0 0 0 0 0 -21 0 0 0 0 0 0 0 0 0 0 0 0 0 0 21 0 0 0 0 0 0 0 0 0 0 0 0 0 0 0 0 0 0 0 0 0 0 -16 0 0 21 0 0 11 0 0 0 -8 0 0 0 0 0 0 0 0 0 0 0 0 0 0 0 0 0 0 0 0 8 0 0 0 0 0 0 0 0 0 0 0 0 0 0 0 0 0
11.4830 16.4512 3.9532 78.6836 -86.4101 -67.9059 0.0000 0.0000 0.0000 -14.0791 -12.1201 -1.3256 0.1418 2.4265 6.6858 -0.1876 14.8324 -18.9082 13.4988 -18.9549 -70.6678 0.0000 0.0000 0.0000 7.5587 9.1776 -2.9586 -0.1571 -2.5540 7.0393 -0.7823 -2.7284 -17.9105 -2.9361 10.5909 -30.9121 -8.5112 0.2419 -8.4717 -0.0290 1.0671 -1.0916 4.8793 0.4021 3.4603 -16.9121 3.4576 -8.7890 23.8542 3.8241 12.5664 10.9565 2.5087 4.2106 -0.0000 -0.0000 0.0000 -84.7088 11.4698 50.0073 113.7839 -57.7508 -80.4419 -0.0000 -0.0000 2.1637 60.2504 -17.9933 -28.3904 -7.1250 0.0000 -0.0000 19.4060 -1.6189 -21.1870 -0.0000 -0.0000 0.0000 98.6926 -14.6572 12.0693 -114.7220 57.5598 -81.2344 0.0000 -0.0000 -7.0671 -19.2553 -37.6016 12.0322 7.1250 -0.0000 -0.0000 21.2277 -68.0717 -11.9719
11.4853 16.4525 3.9558 79.1451 -86.2857 -68.3601 0.0000 0.0000 0.0000 -14.2593 -12.1541 -1.3071 0.1408 2.4186 6.6640 -0.2155 14.9352 -18.7236 13.5281 -18.9646 -70.7580 0.0000 0.0000 0.0000 7.3747 9.0855 -3.0279 -0.1582 -2.5629 7.0640 -0.7862 -2.6194 -17.8947 -2.9717 10.6492 -31.1056 -8.6562 0.2251 -8.4810 -0.0618 1.0584 -1.1068 4.9254 0.3965 3.4486 -16.6964 3.4527 -8.7393 23.6416 3.8098 12.5330 10.8323 2.4972 4.2077 -0.0000 0.0000 0.0000 -85.4419 10.5327 49.5008 110.2295 -58.3958 -77.4249 -0.0000 -0.0000 2.4072 60.7009 -18.8600 -29.9444 -7.1250 0.0000 -0.0000 19.3990 -3.2368 -21.7184 -0.0000 0.0000 0.0000 98.7473 -14.6821 12.0901 -114.9025 57.5220 -81.3868 0.0000 -0.0000 -7.3684 -22.0472 -27.4602 10.5782 7.1250 -0.0000 -0.0000 9.4482 -59.0092 -3.2528
11.4867 16.4530 3.9576 79.5357 -86.2513 -68.7482 0.0000 0.0000 0.0000 -14.3212 -12.1810 -1.3129 0.1417 2.4264 6.6856 -0.1729 14.6880 -18.8627 13.4646 -18.9435 -70.5624 0.0000 0.0000 0.0000 7.3223 9.1023 -3.0363 -0.1586 -2.5662 7.0732 -0.7863 -2.6092 -17.8910 -2.9649 10.6380 -31.0685 -8.7369 0.2275 -8.5020 -0.0482 1.0698 -1.1168 4.9868 0.4013 3.4463 -16.5954 3.4151 -8.8797 23.5734 3.7414 12.7052 10.8020 2.4731 4.3028 0.0000 -0.0000 0.0000 -85.9337 9.3270 49.4102 106.0161 -59.0082 -73.8242 -0.0000 -0.0000 2.5121 61.3603 -19.4134 -31.3258 -7.1250 0.0000 -0.0000 19.5914 -4.5389 -22.3858 0.0000 -0.0000 0.0000 98.7382 -14.6723 12.0762 -114.9441 57.5132 -81.4219 0.0000 -0.0000 -7.4787 -21.9109 -27.3604 10.4731 7.1250 -0.0000 -0.0000 9.5454 -58.8764 -3.2562
11.4881 16.4535 3.9591 79.8693 -86.2755 -69.1170 0.0000 0.0000 0.0000 -14.3206 -12.2143 -1.2480 0.1416 2.4252 6.6822 -0.1416 14.5896 -19.0944 13.4077 -18.9245 -70.3872 0.0000 0.0000 0.0000 7.3397 9.0712 -3.0201 -0.1588 -2.5677 7.0774 -0.7848 -2.5530 -17.8459 -2.9331 10.5859 -30.8958 -8.7393 0.2227 -8.4864 -0.0053 1.0613 -1.1130 5.0323 0.3972 3.4420 -16.6165 3.3680 -9.1825 23.5788 3.6619 13.0698 10.8394 2.4522 4.4800 -0.0000 -0.0000 0.0000 -89.1853 9.5025 46.3025 106.6483 -58.9264 -74.3658 -0.0000 -0.0000 4.6172 59.2678 -19.7654 -29.6318 -7.1250 0.0000 -0.0000 18.3719 -3.5896 -20.5443 -0.0000 -0.0000 0.0000 98.6595 -14.6399 12.0998 -114.8834 57.5260 -81.3707 0.0000 -0.0000 -7.4436 -21.6389 -27.8294 10.4924 7.1250 -0.0000 -0.0000 10.0958 -59.2884 -3.5462
11.4911 16.4527 3.9608 80.2451 -86.2823 -69.5157 0.0000 0.0000 0.0000 -14.3440 -12.3371 -1.1676 0.1426 2.4339 6.7066 -0.0277 13.9919 -19.5621 13.2320 -18.8643 -69.8446 0.0000 0.0000 0.0000 7.3173 9.0130 -3.0569 -0.1600 -2.5771 7.1036 -0.7808 -2.5269 -17.7905 -2.9791 10.6611 -31.1454 -8.7328 0.1905 -8.5042 0.0398 1.0205 -1.0841 5.0726 0.3743 3.4879 -16.6266 3.3270 -9.4553 23.4071 3.6288 13.3374 10.8032 2.4436 4.6199 0.0000 -0.0000 0.0000 -89.4355 9.4130 45.9759 106.5287 -58.9421 -74.2634 -0.0000 -0.0000 4.7119 59.3866 -19.8972 -29.9060 -7.1250 0.0000 -0.0000 18.3981 -3.8606 -20.6598 0.0000 -0.0000 0.0000 98.5606 -14.5715 12.2614 -114.8244 57.5384 -81.3209 0.0000 -0.0000 -7.3352 -22.4924 -28.5890 11.2072 7.1250 -0.0000 -0.0000 9.5710 -60.2593 -3.5818
11.4941 16.4518 3.9625 80.4574 -86.3082 -69.7291 0.0000 0.0000 0.0000 -14.3252 -12.4814 -1.1181 0.1446 2.4509 6.7534 0.2129 12.5157 -20.2945 12.8258 -18.7184 -68.5837 0.0000 0.0000 0.0000 7.3320 9.0362 -3.0960 -0.1619 -2.5926 7.1466 -0.7797 -2.5574 -17.7944 -3.0285 10.7411 -31.4116 -8.7353 0.1972 -8.5829 0.0752 1.0396 -1.0380 5.1155 0.3784 3.5770 -16.4649 3.2600 -9.5245 23.0661 3.5693 13.3305 10.6474 2.4077 4.6586 -0.0000 0.0000 0.0000 -89.5025 9.2137 45.8981 106.2902 -58.9732 -74.0591 -0.0000 -0.0000 4.7474 59.7433 -19.9166 -30.2836 -7.1250 0.0000 -0.0000 18.5839 -4.1314 -20.9754 -0.0000 0.0000 0.0000 98.5804 -14.4701 12.3061 -114.8175 57.5398 -81.3150 0.0000 -0.0000 -7.2735 -23.6784 -28.8765 11.9570 7.1250 -0.0000 -0.0000 8.3908 -60.8413 -3.2524
11.4956 16.4524 3.9629 80.5935 -86.3664 -69.8869 0.0000 0.0000 0.0000 -14.2688 -12.5696 -1.0426 0.1446 2.4508 6.7533 0.3712 11.5256 -20.7999 12.5168 -18.6007 -67.6179 0.0000 0.0000 0.0000 7.4054 9.0660 -3.0803 -0.1623 -2.5954 7.1542 -0.7829 -2.5303 -17.8145 -3.0527 10.7798 -31.5410 -8.6844 0.2928 -8.5769 0.0508 1.1597 -1.0727 5.0735 0.4422 3.5202 -16.1455 3.1824 -9.2826 22.7798 3.4380 13.1688 10.4601 2.3279 4.6126 -0.0000 0.0000 0.0000 -89.3254 9.1875 46.1065 106.1569 -58.9903 -73.9449 -0.0000 -0.0000 4.7738 59.9522 -19.9132 -30.4894 -7.1250 0.0000 -0.0000 18.6966 -4.2705 -21.1602 -0.0000 0.0000 0.0000 98.7681 -14.4934 12.0360 -114.8019 57.5431 -81.3019 0.0000 -0.0000 -7.1880 -23.9467 -28.7429 12.0553 7.1250 -0.0000 -0.0000 8.0101 -60.7711 -3.0904
11.4969 16.4529 3.9624 81.1363 -86.3847 -70.4531 0.0000 0.0000 0.0000 -14.2554 -12.5204 -1.0232 0.1444 2.4492 6.7487 0.3609 11.6428 -20.8254 12.5517 -18.6143 -67.7273 0.0000 0.0000 0.0000 7.4147 9.0398 -3.0789 -0.1617 -2.5907 7.1412 -0.7854 -2.4277 -17.7885 -3.0662 10.8014 -31.6129 -8.6403 0.3786 -8.5081 -0.0012 1.2578 -1.1694 5.0015 0.5008 3.3672 -15.8965 3.1118 -9.0055 22.6403 3.2938 13.0636 10.3425 2.2442 4.5722 0.0000 -0.0000 0.0000 -89.1372 9.3209 46.2433 106.0993 -58.9976 -73.8954 -0.0000 -0.0000 4.8682 60.0573 -20.0265 -30.7324 -7.1250 0.0000 -0.0000 18.7202 -4.5086 -21.2631 0.0000 -0.0000 0.0000 98.8983 -14.6309 11.8120 -114.7359 57.5569 -81.2462 0.0000 -0.0000 -7.0345 -23.8759 -28.7094 12.0039 7.1250 -0.0000 -0.0000 8.0724 -60.7193 -3.1046
11.4988 16.4536 3.9633 81.3688 -86.3758 -70.7200 0.0000 0.0000 0.0000 -14.2803 -12.4663 -1.0124 0.1445 2.4494 6.7495 0.2933 12.1413 -20.6971 12.6789 -18.6632 -68.1253 0.0000 0.0000 0.0000 7.3966 9.0243 -3.0687 -0.1624 -2.5963 7.1568 -0.7871 -2.3568 -17.7709 -3.0292 10.7422 -31.4152 -8.6282 0.3817 -8.4722 -0.0076 1.2550 -1.2034 4.9864 0.5029 3.3121 -15.7633 3.0670 -8.9575 22.4812 3.2260 13.0591 10.2556 2.2057 4.5842 0.0000 -0.0000 0.0000 -89.0323 9.3508 46.1969 106.0152 -59.0083 -73.8234 -0.0000 -0.0000 4.8704 60.1677 -20.1419 -30.9839 -7.1250 0.0000 -0.0000 18.7461 -4.7537 -21.3708 0.0000 -0.0000 0.0000 98.8502 -14.7396 11.8799 -114.7706 57.5496 -81.2755 0.0000 -0.0000 -7.0365 -24.0806 -28.7887 12.1462 7.1250 -0.0000 -0.0000 7.8821 -60.8511 -3.0556
11.5023 16.4551 3.9636 81.6896 -86.3984 -71.0857 0.0000 0.0000 0.0000 -14.2778 -12.4489 -0.9710 0.1439 2.4447 6.7363 0.2483 12.4267 -20.5635 12.7475 -18.6891 -68.3395 0.0000 0.0000 0.0000 7.4288 9.0741 -3.0439 -0.1639 -2.6082 7.1896 -0.7878 -2.3332 -17.7667 -2.9790 10.6609 -31.1447 -8.5753 0.4063 -8.4269 -0.0394 1.2793 -1.2055 4.9246 0.5170 3.2829 -15.5670 3.0665 -8.8948 22.2661 3.2298 12.9723 10.1334 2.2013 4.5574 -0.0000 -0.0000 0.0000 -88.8687 9.3462 46.2028 106.0197 -59.0078 -73.8273 -0.0000 -0.0000 4.7300 60.2770 -20.0926 -31.0364 -7.1250 0.0000 -0.0000 18.8186 -4.7590 -21.4648 -0.0000 -0.0000 0.0000 98.8903 -14.8199 11.9168 -114.9077 57.5209 -81.3912 0.0000 -0.0000 -7.0813 -24.2458 -28.8701 12.2682 7.1250 -0.0000 -0.0000 7.7375 -60.9755 -3.0220
11.5075 16.4564 3.9610 82.5762 -86.4556 -71.9907 0.0000 0.0000 0.0000 -14.1923 -12.3037 -1.0149 0.1438 2.4437 6.7336 0.2590 12.2125 -20.4200 12.7218 -18.6794 -68.2591 0.0000 0.0000 0.0000 7.4882 9.0832 -3.0814 -0.1647 -2.6144 7.2069 -0.7847 -2.2745 -17.7054 -2.9618 10.6329 -31.0517 -8.5593 0.4667 -8.3725 -0.0588 1.3513 -1.2373 4.9009 0.5571 3.2093 -15.3339 3.0625 -8.7729 22.0652 3.2144 12.8733 10.0069 2.1864 4.5206 0.0000 0.0000 0.0000 -88.8134 9.4160 46.2119 106.1019 -58.9973 -73.8977 -0.0000 -0.0000 4.6233 60.3672 -20.0209 -31.0423 -7.1250 0.0000 -0.0000 18.8874 -4.7182 -21.5399 0.0000 0.0000 0.0000 98.9621 -14.9109 11.8543 -115.0480 57.4913 -81.5095 0.0000 -0.0000 -7.0956 -24.3767 -28.9044 12.3538 7.1250 -0.0000 -0.0000 7.6056 -61.0432 -2.9824
11.5127 16.4562 3.9574 83.0717 -86.4455 -72.4856 0.0000 0.0000 0.0000 -14.1806 -12.2578 -1.0462 0.1436 2.4422 6.7294 0.3077 11.8381 -20.4947 12.6149 -18.6387 -67.9249 0.0000 0.0000 0.0000 7.4617 8.9712 -3.1646 -0.1652 -2.6186 7.2185 -0.7791 -2.1932 -17.6056 -3.0162 10.7212 -31.3453 -8.6713 0.4626 -8.3311 -0.0258 1.3485 -1.2690 4.9971 0.5578 3.1497 -15.1565 3.0240 -8.8358 21.8778 3.1539 12.9562 9.9111 2.1584 4.5778 0.0000 0.0000 0.0000 -88.8825 9.4640 46.0928 106.1445 -58.9919 -73.9342 -0.0000 -0.0000 4.6350 60.2062 -19.9925 -30.8429 -7.1250 0.0000 -0.0000 18.8096 -4.5632 -21.3932 0.0000 0.0000 0.0000 98.8591 -14.9695 11.9417 -115.1138 57.4773 -81.5650 0.0000 -0.0000 -7.1660 -24.5867 -28.9267 12.4792 7.1250 -0.0000 -0.0000 7.3759 -61.1187 -2.9050
